<?xml version="1.0" encoding="UTF-8" standalone="no"?><svg xmlns="http://www.w3.org/2000/svg" xmlns:xlink="http://www.w3.org/1999/xlink" fill="#ffffff" height="46" preserveAspectRatio="xMidYMid meet" version="1" viewBox="2.0 2.0 46.0 46.0" width="46" zoomAndPan="magnify"><g id="change1_1"><path d="M7.55518,20.4434l4.92772,2.8457a3.01083,3.01083,0,0,0,3.0005,0l4.9287-2.8457a3.0106,3.0106,0,0,0,1.4995-2.5977V12.1543a3.01,3.01,0,0,0-1.5-2.5977L15.4839,6.7109a3.01409,3.01409,0,0,0-3.0005,0L7.55469,9.5566a3.01059,3.01059,0,0,0-1.49951,2.5977v5.6914A3.01,3.01,0,0,0,7.55518,20.4434Zm.5-8.2891a1.0024,1.0024,0,0,1,.5-.8652L13.4839,8.4434a.98833.98833,0,0,1,.4995-.1338,1.00167,1.00167,0,0,1,.5.1338l4.9277,2.8457a1.00183,1.00183,0,0,1,.5005.8652v5.6914a1.00242,1.00242,0,0,1-.5.8652l-4.9287,2.8457a.9985.9985,0,0,1-.9995,0L8.55566,18.7109a1.00183,1.00183,0,0,1-.50048-.8652Z" fill="inherit"/><path d="M13.9834,19a4,4,0,1,0-4-4A4.00422,4.00422,0,0,0,13.9834,19Zm0-6a2,2,0,1,1-2,2A2.00233,2.00233,0,0,1,13.9834,13Z" fill="inherit"/><path d="M45,2H5A3.00328,3.00328,0,0,0,2,5V33a3.00328,3.00328,0,0,0,3,3H18v5h-.3228a1.98734,1.98734,0,0,0-1.8564,1.2578l-1.2002,2.999A2.00016,2.00016,0,0,0,16.4775,48H33.5234a2.00027,2.00027,0,0,0,1.8575-2.7422l-1.2012-3.001A1.99011,1.99011,0,0,0,32.3232,41H32V36H45a3.00328,3.00328,0,0,0,3-3V5A3.00328,3.00328,0,0,0,45,2ZM5,4H45a1.00062,1.00062,0,0,1,1,1V30H4V5A1.001,1.001,0,0,1,5,4ZM33.5234,46H16.4771l1.2001-3h14.646ZM30,41H20V36H30Zm15-7H5a1.001,1.001,0,0,1-1-1V32H46v1A1.00062,1.00062,0,0,1,45,34Z" fill="inherit"/><path d="M36,16V26H34V18a2.00266,2.00266,0,0,0-2-2H28a2.00266,2.00266,0,0,0-2,2v8a2.00266,2.00266,0,0,0,2,2H42a2.00266,2.00266,0,0,0,2-2V16a2.00266,2.00266,0,0,0-2-2H38A2.00266,2.00266,0,0,0,36,16ZM28,26V18h4v8ZM38,16h4l.002,10H38Z" fill="inherit"/><path d="M6.9834,28h14a1,1,0,1,0,0-2h-14a1,1,0,0,0,0,2Z" fill="inherit"/><path d="M25.9834,8h3a1,1,0,1,0,0-2h-3a1,1,0,0,0,0,2Z" fill="inherit"/><path d="M32.9834,8h3a1,1,0,0,0,0-2h-3a1,1,0,0,0,0,2Z" fill="inherit"/><path d="M39.9834,8h3a1,1,0,0,0,0-2h-3a1,1,0,0,0,0,2Z" fill="inherit"/><path d="M32.9834,12h3a1,1,0,0,0,0-2h-3a1,1,0,0,0,0,2Z" fill="inherit"/><path d="M39.9834,12h3a1,1,0,0,0,0-2h-3a1,1,0,0,0,0,2Z" fill="inherit"/></g></svg>