<?xml version="1.0" encoding="UTF-8" standalone="no"?><svg xmlns="http://www.w3.org/2000/svg" fill="#0f0246" height="69.73" viewBox="0 0 70.06 69.73" width="70.06"><g data-name="Layer 2"><g data-name="Layer 1"><path d="M1.59,8.48,8.48,1.59A5.46,5.46,0,0,1,16.2,9.31L9.31,16.2A5.46,5.46,0,0,1,1.59,8.48Z"/><path d="M2.09,34.12,34.45,1.76a5.46,5.46,0,0,1,7.72,7.72L9.81,41.84a5.46,5.46,0,1,1-7.72-7.72Z"/><path d="M68.14,61.25l-6.89,6.89a5.48,5.48,0,0,1-7.72,0h0a5.46,5.46,0,0,1,0-7.72l6.89-6.89a5.46,5.46,0,0,1,7.72,7.72Z"/><path d="M68.3,35.61,35.94,68a5.46,5.46,0,0,1-7.72-7.72L60.58,27.89a5.46,5.46,0,0,1,7.72,7.72Z"/><path d="M70,6.43V15a5.15,5.15,0,0,1-9.65,2.51L10.25,67.53a5.46,5.46,0,0,1-7.72-7.72L52.37,10a5.15,5.15,0,0,1,2-9.91h9.5A5.43,5.43,0,0,1,70,6.43Z"/></g></g></svg>