<?xml version="1.0" encoding="UTF-8" standalone="no"?><svg xmlns="http://www.w3.org/2000/svg" xmlns:xlink="http://www.w3.org/1999/xlink" fill="#ffffff" height="126" preserveAspectRatio="xMidYMid meet" version="1" viewBox="0.0 0.0 98.9 126.0" width="98.9" zoomAndPan="magnify"><g id="change1_1"><path d="M98.92,40.03V16.35C98.92,7.182,77.194,0,49.46,0S0,7.182,0,16.35V40.03c0,2.129,1.107,4.157,3.292,6.041 C1.451,47.611,0,49.073,0,51.16v23.68c0,2.128,1.107,4.156,3.291,6.041C1.452,82.417,0,83.873,0,85.97v23.681 C0,118.818,21.726,126,49.46,126s49.46-7.182,49.46-16.35V85.97c0-2.097-1.452-3.553-3.292-5.089 c2.185-1.885,3.292-3.913,3.292-6.041V51.16c0-2.088-1.451-3.549-3.292-5.089C97.813,44.187,98.92,42.159,98.92,40.03z M5.88,47.933c8.457,5.168,25.182,8.447,43.58,8.447c18.398,0,35.123-3.279,43.58-8.447v1.537c0,5.805-17.512,12.021-43.58,12.021 S5.88,55.274,5.88,49.47V47.933z M49.46,2c28.389,0,47.46,7.42,47.46,14.35c0,6.931-19.071,14.351-47.46,14.351S2,23.28,2,16.35 C2,9.42,21.071,2,49.46,2z M5.88,82.743c8.458,5.168,25.183,8.447,43.58,8.447c18.397,0,35.122-3.279,43.58-8.447v1.537 c0,5.805-17.512,12.02-43.58,12.02S5.88,90.085,5.88,84.28V82.743z M49.46,100.32C21.071,100.32,2,92.9,2,85.97 c0-1.036,0.763-1.955,1.88-2.953v1.264c0,8.775,23.175,14.02,45.58,14.02s45.58-5.244,45.58-14.02v-1.264 c1.117,0.999,1.88,1.917,1.88,2.953C96.92,92.9,77.849,100.32,49.46,100.32z M49.46,65.51C21.071,65.51,2,58.09,2,51.16 c0-1.031,0.762-1.951,1.88-2.952v1.261c0,8.776,23.175,14.021,45.58,14.021s45.58-5.244,45.58-14.021v-1.261 c1.118,1.001,1.88,1.921,1.88,2.952C96.92,58.09,77.849,65.51,49.46,65.51z" fill="inherit"/><path d="M31.02,26.64H67.9c0.318,0,0.617-0.151,0.806-0.407s0.244-0.587,0.149-0.891l-3.75-12.029 c-0.13-0.418-0.517-0.702-0.955-0.702h-1.374l-1.798-7.028C60.865,5.14,60.467,4.83,60.01,4.83h-21.1 c-0.457,0-0.855,0.31-0.969,0.752L37.253,8.27H36.12c-0.438,0-0.825,0.284-0.955,0.702l-5.1,16.37 c-0.095,0.304-0.039,0.635,0.149,0.891C30.403,26.488,30.702,26.64,31.02,26.64z M39.687,6.83h19.547l1.479,5.78H45.889 l-0.667-3.526C45.133,8.611,44.72,8.27,44.24,8.27h-4.922L39.687,6.83z M36.856,10.27h6.555l0.667,3.526 c0.089,0.473,0.502,0.814,0.982,0.814h18.354l3.126,10.029H32.379L36.856,10.27z" fill="inherit"/></g></svg>